<?xml version="1.0" standalone="no"?>
<!DOCTYPE svg PUBLIC "-//W3C//DTD SVG 20010904//EN"
 "http://www.w3.org/TR/2001/REC-SVG-20010904/DTD/svg10.dtd">
<svg version="1.0" xmlns="http://www.w3.org/2000/svg"
 width="700.000000pt" height="700.000000pt" viewBox="0 0 700.000000 700.000000"
 preserveAspectRatio="xMidYMid meet">
<metadata>
Created by potrace 1.14, written by Peter Selinger 2001-2017
</metadata>
<g transform="translate(0.000000,700.000000) scale(0.100000,-0.100000)"
fill="#000000" stroke="none">
<path d="M670 6993 c-331 -55 -585 -296 -655 -620 -12 -59 -14 -448 -15 -2878
l0 -2810 25 -91 c42 -159 104 -265 216 -374 105 -103 266 -186 400 -208 24 -4
1317 -7 2874 -7 l2830 0 78 23 c243 70 431 237 520 464 60 149 56 -50 56 3013
l0 2810 -23 90 c-81 310 -322 534 -631 584 -58 10 -5619 13 -5675 4z"/>
</g>
</svg>
